<svg width="68" height="60" viewBox="0 0 68 60" fill="none" xmlns="http://www.w3.org/2000/svg">
<path d="M66.2836 10.7941L35.0672 0.239062C34.643 0.0796875 34.1965 0 33.75 0C33.3035 0 32.857 0.0796875 32.4328 0.239062L1.21641 10.7941C0.859103 10.9282 0.551211 11.1681 0.333855 11.4818C0.116499 11.7955 2.86258e-05 12.168 0 12.5496L0 16.875C0 17.9109 0.839062 18.75 1.875 18.75H65.625C66.6609 18.75 67.5 17.9109 67.5 16.875V12.5496C67.5 11.768 67.0148 11.0684 66.2836 10.7941ZM63.75 15H3.75V13.8961L33.75 3.75L63.75 13.8937V15ZM66.5625 56.25H63.75V48.75C63.75 46.6793 61.8316 45 59.4645 45H58.125V22.5H54.375V45H43.125V22.5H39.375V45H28.125V22.5H24.375V45H13.125V22.5H9.375V45H8.03555C5.66836 45 3.75 46.6793 3.75 48.75V56.25H0.9375C0.419531 56.25 0 56.6695 0 57.1875V59.0625C0 59.5805 0.419531 60 0.9375 60H66.5625C67.0805 60 67.5 59.5805 67.5 59.0625V57.1875C67.5 56.6695 67.0805 56.25 66.5625 56.25ZM60 56.25H7.5V48.9C7.58203 48.8391 7.75898 48.75 8.03555 48.75H59.4645C59.7422 48.75 59.918 48.8391 60 48.9V56.25Z" fill="black"/>
</svg>
