<svg width="133" height="60" viewBox="0 0 133 60" fill="none" xmlns="http://www.w3.org/2000/svg">
<path d="M26.25 23.4375C24.9521 23.4375 23.6833 23.8224 22.6041 24.5436C21.5249 25.2647 20.6838 26.2896 20.1872 27.4888C19.6905 28.6879 19.5606 30.0074 19.8138 31.2804C20.067 32.5534 20.6921 33.7227 21.6098 34.6404C22.5276 35.5582 23.697 36.1832 24.97 36.4364C26.243 36.6896 27.5624 36.5597 28.7616 36.0629C29.9607 35.5662 30.9856 34.7251 31.7067 33.6459C32.4278 32.5667 32.8127 31.2979 32.8127 30C32.8105 28.2601 32.1184 26.5922 30.8881 25.3619C29.6579 24.1317 27.9899 23.4396 26.25 23.4375ZM26.25 32.8125C25.6937 32.8125 25.15 32.6475 24.6875 32.3385C24.225 32.0294 23.8645 31.5902 23.6516 31.0762C23.4388 30.5623 23.3831 29.9968 23.4916 29.4513C23.6002 28.9057 23.868 28.4046 24.2614 28.0112C24.6547 27.6179 25.1558 27.35 25.7014 27.2415C26.247 27.133 26.8125 27.1887 27.3264 27.4016C27.8403 27.6145 28.2795 27.975 28.5886 28.4375C28.8976 28.9 29.0626 29.4437 29.0626 30C29.0624 30.7459 28.766 31.4611 28.2386 31.9885C27.7111 32.5159 26.9959 32.8123 26.25 32.8125ZM48.3661 30C50.1898 27.6251 51.4973 25.2393 52.1052 22.9688C52.812 20.3192 52.5666 17.8802 51.3947 15.9155C49.2596 12.3413 44.323 10.8801 38.0936 11.4111C35.3689 4.43115 31.1207 0 26.25 0C21.3793 0 17.1311 4.43115 14.4101 11.4111C8.17701 10.8801 3.24036 12.3395 1.10895 15.9155C-0.0666165 17.8802 -0.311985 20.3192 0.394821 22.9688C1.00275 25.2393 2.31015 27.6251 4.13393 30C2.31015 32.3749 1.00275 34.7607 0.394821 37.0312C-0.311985 39.6808 -0.0666165 42.1198 1.10529 44.0845C2.96203 47.1899 6.91721 48.7152 12.0077 48.7152C12.7548 48.7152 13.5898 48.5815 14.3808 48.5156C17.1055 55.5377 21.3646 60 26.25 60C31.1354 60 35.3945 55.5377 38.1192 48.5156C38.9102 48.5815 39.7452 48.7152 40.4923 48.7152C45.5791 48.7152 49.538 47.1899 51.391 44.0845C52.5666 42.1198 52.812 39.6808 52.1052 37.0312C51.4973 34.7607 50.1898 32.3749 48.3661 30ZM4.32437 42.1619C3.67616 41.0724 3.56995 39.6716 4.02041 38.0017C4.45245 36.394 5.37908 34.6729 6.63522 32.9279C8.21624 34.5504 9.91261 36.0564 11.711 37.4341C12.0139 39.9652 12.5072 42.4699 13.1869 44.9268C8.76663 45.1538 5.52191 44.1614 4.32437 42.1619ZM11.3009 32.1954C10.4988 31.4685 9.75176 30.7367 9.0596 30C9.75176 29.2621 10.4988 28.5303 11.3009 27.8046C11.2752 28.5333 11.2459 29.2566 11.2459 30C11.2459 30.7434 11.2752 31.4667 11.3009 32.1954ZM11.711 22.5659C9.91184 23.9426 8.2154 25.4487 6.63522 27.0721C5.37909 25.3271 4.45245 23.606 4.02041 21.9983C3.56995 20.3284 3.67616 18.9276 4.32803 17.8381C5.40838 16.0254 8.16236 15.0275 11.9637 15.0275C12.3519 15.0275 12.7731 15.0604 13.1869 15.0806C12.5072 17.535 12.0139 20.0372 11.711 22.5659ZM36.5261 19.5776C35.5447 18.9532 34.5486 18.338 33.5012 17.7557C32.7468 17.3364 31.996 16.9464 31.2416 16.5674C32.6496 16.144 34.0801 15.7993 35.5264 15.5347C35.8595 16.637 36.3064 18.4479 36.5261 19.5776ZM26.25 3.75C29.0699 3.75 32.0546 6.80054 34.2409 11.9495C31.5129 12.5097 28.8391 13.3074 26.25 14.3335C23.6613 13.3058 20.9874 12.5075 18.2591 11.9476C20.4454 6.79871 23.4301 3.75 26.25 3.75ZM16.9736 15.5347C18.4188 15.7989 19.8481 16.1437 21.2548 16.5674C20.504 16.9464 19.7496 17.3364 18.9988 17.7557C17.9514 18.338 16.9553 18.9532 15.9738 19.5776C16.1936 18.4479 16.6403 16.637 16.9736 15.5347ZM15.9738 40.4224C16.9553 41.0468 17.9514 41.662 18.9988 42.2443C19.7862 42.6837 20.5663 43.0042 21.3536 43.3997C19.9147 43.8375 18.4524 44.1945 16.9736 44.469C16.573 43.1377 16.2394 41.7871 15.9738 40.4224ZM26.25 56.25C23.4191 56.25 20.4234 53.1757 18.2334 47.9901C20.9709 47.4357 23.6536 46.6391 26.25 45.6097C28.8464 46.6391 31.5291 47.4357 34.2666 47.9901C32.0766 53.1757 29.0809 56.25 26.25 56.25ZM35.5264 44.4672C34.0487 44.1937 32.5876 43.8373 31.15 43.3997C31.9374 43.0042 32.7175 42.6837 33.5012 42.2443C34.5486 41.662 35.5483 41.0468 36.5298 40.4242C36.2478 41.8542 35.9072 43.1982 35.5264 44.4672ZM37.2513 35.3979C35.4664 36.6991 33.6051 37.8921 31.6774 38.9703C29.9186 39.9508 28.1081 40.8353 26.2537 41.6199C24.3968 40.8353 22.5838 39.9509 20.8226 38.9703C18.8949 37.8921 17.0336 36.6991 15.2487 35.3979C15.0876 33.6731 14.996 31.8732 14.996 30C14.996 28.1268 15.0876 26.3269 15.2487 24.6021C17.0336 23.3009 18.8949 22.1079 20.8226 21.0297C22.5825 20.0463 24.3943 19.1588 26.25 18.371C28.1057 19.1588 29.9175 20.0463 31.6774 21.0297C33.6051 22.1079 35.4664 23.3009 37.2513 24.6021C37.4124 26.3269 37.504 28.1268 37.504 30C37.504 31.8732 37.4124 33.6731 37.2513 35.3979ZM40.5399 15.0275C44.3376 15.0275 47.0916 16.0254 48.1756 17.8363C48.8238 18.9276 48.93 20.3265 48.4796 21.9965C48.0474 23.606 47.1209 25.3253 45.8648 27.0721C44.2851 25.4482 42.5886 23.9421 40.789 22.5659C40.4857 20.0376 39.9936 17.5354 39.3168 15.0806C39.7269 15.0586 40.1481 15.0275 40.5399 15.0275ZM41.1991 27.8046C42.0012 28.5315 42.7482 29.2633 43.4404 30C42.7482 30.7379 42.0011 31.4697 41.1991 32.1954C41.2248 31.4667 41.2541 30.7434 41.2541 30C41.2541 29.2566 41.2248 28.5333 41.1991 27.8046ZM48.172 42.1619C46.9818 44.1614 43.737 45.1538 39.3131 44.9231C39.9928 42.4674 40.4861 39.964 40.789 37.4341C42.5882 36.0574 44.2846 34.5513 45.8648 32.9279C47.1209 34.6729 48.0474 36.394 48.4796 38.0017C48.93 39.6716 48.8238 41.0724 48.172 42.1619Z" fill="black"/>
<path d="M69.75 3.75V3.25H69.25H66.4375C66.198 3.25 66 3.05198 66 2.8125V0.9375C66 0.698017 66.198 0.5 66.4375 0.5H90.8125C91.052 0.5 91.25 0.698017 91.25 0.9375V2.8125C91.25 3.05198 91.052 3.25 90.8125 3.25H88H87.5V3.75V39.375C87.5 44.2668 83.5168 48.25 78.625 48.25C73.7332 48.25 69.75 44.2668 69.75 39.375V3.75ZM73 3.25H72.5V3.75V18.75V19.25H73H84.25H84.75V18.75V3.75V3.25H84.25H73ZM73 22H72.5V22.5V39.375C72.5 41.3724 73.26 42.9065 74.4271 43.9358C75.5846 44.9567 77.1133 45.4561 78.625 45.4561C80.1367 45.4561 81.6654 44.9567 82.8229 43.9358C83.99 42.9065 84.75 41.3724 84.75 39.375V22.5V22H84.25H73ZM103.5 3.75V3.25H103H100.188C99.948 3.25 99.75 3.05198 99.75 2.8125V0.9375C99.75 0.698017 99.948 0.5 100.188 0.5H124.562C124.802 0.5 125 0.698017 125 0.9375V2.8125C125 3.05198 124.802 3.25 124.562 3.25H121.75H121.25V3.75V39.375C121.25 44.2668 117.267 48.25 112.375 48.25C107.483 48.25 103.5 44.2668 103.5 39.375V3.75ZM106.75 3.25H106.25V3.75V18.75V19.25H106.75H118H118.5V18.75V3.75V3.25H118H106.75ZM106.75 22H106.25V22.5V39.375C106.25 41.3724 107.01 42.9065 108.177 43.9358C109.335 44.9567 110.863 45.4561 112.375 45.4561C113.887 45.4561 115.415 44.9567 116.573 43.9358C117.74 42.9065 118.5 41.3724 118.5 39.375V22.5V22H118H106.75ZM58.9375 56.75H132.062C132.302 56.75 132.5 56.948 132.5 57.1875V59.0625C132.5 59.302 132.302 59.5 132.062 59.5H58.9375C58.698 59.5 58.5 59.302 58.5 59.0625V57.1875C58.5 56.948 58.698 56.75 58.9375 56.75Z" fill="black" stroke="black"/>
</svg>
