<svg width="147" height="60" viewBox="0 0 147 60" fill="none" xmlns="http://www.w3.org/2000/svg">
<path d="M74.5423 45.6396L65.8562 35.6141H69.3754C70.1043 35.6141 70.7711 35.191 71.0747 34.5278C71.3817 33.8645 71.2797 33.084 70.8075 32.5273L62.3112 22.483H65.6254C66.3648 22.483 67.0351 22.0471 67.3387 21.3709C67.6387 20.6936 67.5145 19.9037 67.0199 19.3517L50.1447 0.59327C49.4275 -0.197757 48.0716 -0.197757 47.3544 0.59327L37.5 11.5481L27.6455 0.59327C26.9283 -0.197757 25.5725 -0.197757 24.8553 0.59327L7.98001 19.3517C7.738 19.6218 7.57916 19.9561 7.52261 20.3143C7.46606 20.6725 7.51421 21.0394 7.66126 21.3709C7.96478 22.0471 8.6351 22.483 9.37456 22.483H12.6887L4.19246 32.5273C3.72019 33.084 3.61706 33.8645 3.92527 34.5278C4.22879 35.191 4.89559 35.6141 5.62451 35.6141H9.1437L0.457641 45.6396C-0.0216624 46.1951 -0.135336 46.9803 0.168184 47.6471C0.47522 48.3162 1.14203 48.744 1.87446 48.744H20.6247V51.6104L17.7887 57.2847C17.1653 58.5316 18.0723 60 19.4657 60H33.0339C34.4273 60 35.3343 58.5328 34.7109 57.2847L31.8749 51.6104V48.744H43.125V51.6104L40.2891 57.2847C39.6656 58.5316 40.5727 60 41.966 60H55.5342C56.9276 60 57.8346 58.5328 57.2112 57.2847L54.3752 51.6104V48.744H73.1255C73.8579 48.744 74.5247 48.3151 74.8317 47.6471C75.1364 46.9803 75.0228 46.1951 74.5423 45.6396ZM22.4997 56.2476L24.3748 52.4964V48.744H28.1248V52.4964L29.9999 56.2476H22.4997ZM5.9503 44.9998L17.2005 31.8746H9.66754L20.7747 18.7494H13.5863L26.2498 4.67731L38.9133 18.7494H31.7249L42.8321 31.8746H35.2991L46.5493 44.9998H5.9503ZM45.0001 56.2476L46.8751 52.4964V48.744H50.6251V52.4964L52.5002 56.2476H45.0001ZM51.4877 44.9998L43.3559 35.6129H46.8751C47.604 35.6129 48.2708 35.1899 48.5743 34.5266C48.8814 33.8633 48.7794 33.0828 48.3071 32.5262L39.8109 22.4819H43.125C43.8645 22.4819 44.5348 22.0459 44.8383 21.3697C45.1384 20.6924 45.0141 19.9025 44.5196 19.3506L40.0324 14.363L48.7501 4.67731L61.4136 18.7494H54.2252L65.3324 31.8746H57.7995L69.0496 44.9998H51.4877Z" fill="black"/>
<path d="M112.285 25.7151C101.65 25.7151 86.5709 42.1558 86.5709 52.5336C86.5709 57.2077 90.1615 60 96.1787 60C102.72 60 107.039 56.6411 112.285 56.6411C117.576 56.6411 121.907 60 128.391 60C134.408 60 137.998 57.2077 137.998 52.5336C137.998 42.1558 122.92 25.7151 112.285 25.7151ZM128.391 55.7144C125.672 55.7144 123.327 54.9416 120.844 54.1233C118.208 53.2542 115.484 52.3569 112.285 52.3569C109.117 52.3569 106.412 53.2501 103.795 54.114C101.299 54.9376 98.9403 55.7157 96.1787 55.7157C90.8565 55.7144 90.8565 53.3198 90.8565 52.5336C90.8565 44.1097 104.275 30.0007 112.285 30.0007C120.295 30.0007 133.713 44.1097 133.713 52.5336C133.713 53.3198 133.713 55.7144 128.391 55.7144ZM141.592 17.3139C141.113 17.1987 140.627 17.1438 140.144 17.1438C136.682 17.1438 133.231 19.9563 132.009 24.0263C130.616 28.6668 132.648 33.1841 136.548 34.1162C137.027 34.2314 137.512 34.2863 137.996 34.2863C141.458 34.2863 144.909 31.4739 146.13 27.4039C147.523 22.7633 145.491 18.246 141.592 17.3139ZM142.025 26.1717C141.306 28.5677 139.411 30.0007 137.996 30.0007C137.84 30.0007 137.689 29.9833 137.544 29.9484C137.049 29.8306 136.644 29.5038 136.342 28.9775C135.789 28.0159 135.704 26.6271 136.114 25.2597C136.833 22.8624 138.728 21.4294 140.145 21.4294C140.301 21.4294 140.452 21.4468 140.596 21.4817C141.092 21.5995 141.496 21.9276 141.799 22.4526C142.351 23.4142 142.437 24.803 142.025 26.1717ZM120.663 21.2433C121.138 21.3678 121.621 21.4281 122.104 21.4281C125.833 21.4281 129.633 17.8362 131.037 12.6895C132.623 6.8744 130.549 1.27765 126.406 0.186161C125.935 0.0619491 125.451 -0.000627258 124.965 4.73954e-06C121.236 4.73954e-06 117.435 3.59189 116.032 8.73999C114.446 14.555 116.519 20.1531 120.663 21.2433ZM120.166 9.86898C121.16 6.2262 123.592 4.28696 124.965 4.28696C125.087 4.28696 125.202 4.30169 125.314 4.33116C125.867 4.47714 126.268 5.00079 126.506 5.41462C127.187 6.59316 127.647 8.82704 126.901 11.5631C125.908 15.2046 123.477 17.1438 122.103 17.1438C121.981 17.1438 121.866 17.1291 121.752 17.0996C121.2 16.955 120.798 16.4313 120.56 16.0175C119.881 14.8376 119.42 12.6051 120.166 9.86898ZM102.465 21.4294C102.949 21.4294 103.431 21.3692 103.906 21.2446C108.05 20.1545 110.123 14.5564 108.537 8.74133C107.134 3.59323 103.333 0.00134403 99.6046 0.00134403C99.1211 0.00134403 98.639 0.0616105 98.1635 0.1875C94.0199 1.27765 91.9467 6.87574 93.5324 12.6908C94.9359 17.8376 98.7381 21.4294 102.465 21.4294ZM98.0617 5.41462C98.3001 5.00079 98.7019 4.47714 99.2537 4.33116C99.3675 4.30169 99.4813 4.28696 99.6032 4.28696C100.977 4.28696 103.408 6.2262 104.402 9.86898C105.148 12.6051 104.687 14.839 104.007 16.0175C103.768 16.4313 103.368 16.955 102.815 17.0996C102.701 17.1291 102.587 17.1438 102.465 17.1438C101.091 17.1438 98.6604 15.2046 97.6667 11.5618C96.9207 8.82704 97.3814 6.59316 98.0617 5.41462ZM88.0227 34.1162C91.9226 33.1841 93.9542 28.6668 92.5601 24.0263C91.3387 19.9563 87.8874 17.1438 84.4254 17.1438C83.9406 17.1438 83.4558 17.1987 82.9777 17.3139C79.0778 18.246 77.0461 22.7633 78.439 27.4039C79.6604 31.4739 83.113 34.2863 86.5736 34.2863C87.0584 34.2863 87.5432 34.2314 88.0227 34.1162ZM82.5438 26.1704C82.134 24.803 82.2183 23.4129 82.7715 22.4526C83.0741 21.9263 83.4786 21.5995 83.9741 21.4817C84.1187 21.4468 84.2701 21.4294 84.4254 21.4294C85.841 21.4294 87.7361 22.8624 88.4553 25.2584C88.8651 26.6257 88.7807 28.0159 88.2276 28.9775C87.9249 29.5038 87.5205 29.8306 87.0249 29.9484C86.8776 29.9833 86.7303 30.0007 86.5736 30.0007C85.158 30.0007 83.263 28.5677 82.5438 26.1704Z" fill="black"/>
</svg>
