<svg width="146" height="127" viewBox="0 0 146 127" fill="none" xmlns="http://www.w3.org/2000/svg">
<path d="M43.125 9.375C41.6416 9.375 40.1916 9.81487 38.9582 10.639C37.7249 11.4631 36.7636 12.6344 36.1959 14.0049C35.6282 15.3753 35.4797 16.8833 35.7691 18.3382C36.0585 19.793 36.7728 21.1294 37.8217 22.1783C38.8706 23.2272 40.207 23.9415 41.6618 24.2309C43.1167 24.5203 44.6247 24.3718 45.9951 23.8041C47.3656 23.2364 48.5369 22.2751 49.361 21.0418C50.1851 19.8084 50.625 18.3584 50.625 16.875C50.625 14.8859 49.8348 12.9782 48.4283 11.5717C47.0218 10.1652 45.1141 9.375 43.125 9.375ZM43.125 20.625C42.3833 20.625 41.6583 20.4051 41.0416 19.993C40.4249 19.581 39.9443 18.9953 39.6604 18.3101C39.3766 17.6248 39.3024 16.8708 39.4471 16.1434C39.5918 15.416 39.9489 14.7478 40.4734 14.2233C40.9978 13.6989 41.666 13.3417 42.3934 13.1971C43.1208 13.0524 43.8748 13.1266 44.5601 13.4105C45.2453 13.6943 45.831 14.1749 46.243 14.7916C46.6551 15.4083 46.875 16.1333 46.875 16.875C46.875 17.8696 46.4799 18.8234 45.7766 19.5266C45.0734 20.2299 44.1196 20.625 43.125 20.625ZM20.625 9.375C19.1416 9.375 17.6916 9.81487 16.4582 10.639C15.2249 11.4631 14.2636 12.6344 13.6959 14.0049C13.1282 15.3753 12.9797 16.8833 13.2691 18.3382C13.5585 19.793 14.2728 21.1294 15.3217 22.1783C16.3706 23.2272 17.707 23.9415 19.1618 24.2309C20.6167 24.5203 22.1247 24.3718 23.4951 23.8041C24.8656 23.2364 26.0369 22.2751 26.861 21.0418C27.6851 19.8084 28.125 18.3584 28.125 16.875C28.1228 14.8865 27.332 12.9802 25.9259 11.5741C24.5199 10.168 22.6135 9.37717 20.625 9.375ZM20.625 20.625C19.8833 20.625 19.1583 20.4051 18.5416 19.993C17.9249 19.581 17.4443 18.9953 17.1605 18.3101C16.8766 17.6248 16.8024 16.8708 16.9471 16.1434C17.0917 15.416 17.4489 14.7478 17.9734 14.2233C18.4978 13.6989 19.166 13.3417 19.8934 13.1971C20.6208 13.0524 21.3748 13.1266 22.0601 13.4105C22.7453 13.6943 23.331 14.1749 23.743 14.7916C24.1551 15.4083 24.375 16.1333 24.375 16.875C24.375 17.8696 23.9799 18.8234 23.2766 19.5266C22.5734 20.2299 21.6196 20.625 20.625 20.625ZM64.4871 30C63.875 30.0009 63.2777 30.1886 62.775 30.5379L52.5 37.6863V35.625C52.499 34.1798 51.9388 32.791 50.9367 31.7496C56.3016 28.923 60 23.3602 60 16.875C60 12.3995 58.2221 8.10725 55.0574 4.94257C51.8927 1.7779 47.6005 0 43.125 0C38.7891 0 34.8656 1.68516 31.875 4.3793C28.8844 1.68516 24.9668 0 20.625 0C16.1495 0 11.8572 1.7779 8.69257 4.94257C5.5279 8.10725 3.75 12.3995 3.75 16.875C3.75 22.2094 6.27422 26.9074 10.1379 30H3.75C2.75544 30 1.80161 30.3951 1.09835 31.0984C0.395088 31.8016 0 32.7554 0 33.75L0 37.5C0 38.4946 0.395088 39.4484 1.09835 40.1516C1.80161 40.8549 2.75544 41.25 3.75 41.25H11.25V54.375C11.25 55.8668 11.8426 57.2976 12.8975 58.3525C13.9524 59.4074 15.3832 60 16.875 60H46.875C48.3668 60 49.7976 59.4074 50.8525 58.3525C51.9074 57.2976 52.5 55.8668 52.5 54.375V52.3195L62.775 59.4609C63.2767 59.8114 63.8739 59.9995 64.4859 60C66.0445 60 67.5 58.7859 67.5 57.0422V32.9566C67.5 31.2188 66.048 30 64.4871 30ZM48.75 54.375C48.75 54.8723 48.5525 55.3492 48.2008 55.7008C47.8492 56.0525 47.3723 56.25 46.875 56.25H16.875C16.3777 56.25 15.9008 56.0525 15.5492 55.7008C15.1975 55.3492 15 54.8723 15 54.375V37.5H3.75V33.75H46.875C47.3723 33.75 47.8492 33.9475 48.2008 34.2992C48.5525 34.6508 48.75 35.1277 48.75 35.625V54.375ZM43.125 30H20.625C18.489 30.0149 16.3817 29.5083 14.4859 28.5241C12.5901 27.5399 10.9632 26.1079 9.74634 24.3523C8.52949 22.5968 7.75949 20.5708 7.50319 18.4502C7.24689 16.3296 7.51202 14.1785 8.27558 12.1836C9.03914 10.1887 10.278 8.41029 11.8848 7.00277C13.4915 5.59525 15.4174 4.60114 17.4955 4.10674C19.5735 3.61233 21.7408 3.63257 23.8092 4.1657C25.8776 4.69883 27.7847 5.72873 29.3648 7.16602L31.875 9.42656L34.3852 7.16602C35.9653 5.74333 37.868 4.72666 39.9289 4.20381C41.9898 3.68096 44.1471 3.66765 46.2143 4.16503C48.2815 4.6624 50.1966 5.65551 51.7942 7.05859C53.3917 8.46168 54.6237 10.2325 55.3838 12.2183C56.1438 14.204 56.4091 16.3449 56.1566 18.4561C55.9042 20.5673 55.1416 22.5853 53.9348 24.3358C52.7279 26.0864 51.1131 27.5168 49.2298 28.5037C47.3465 29.4905 45.2512 30.0041 43.125 30ZM63.75 55.5727L52.5 47.7516V42.2438L63.75 34.4227V55.5727Z" fill="black"/>
<path d="M142.419 0C142.05 0.000221969 141.684 0.0595704 141.335 0.175781L107.259 11.4258C105.772 11.9203 104.75 13.3594 104.75 15V43.6816C102.758 42.1875 100.143 41.25 97.25 41.25C91.0391 41.25 86 45.4465 86 50.625C86 55.8035 91.0391 60 97.25 60C103.461 60 108.5 55.8035 108.5 50.625V30L142.25 18.75V36.1816C140.258 34.6875 137.643 33.75 134.75 33.75C128.539 33.75 123.5 37.9465 123.5 43.125C123.5 48.3035 128.539 52.5 134.75 52.5C140.961 52.5 146 48.3035 146 43.125V3.75C146 1.61133 144.323 0 142.419 0ZM97.25 56.25C93.1848 56.25 89.75 53.6719 89.75 50.625C89.75 47.5781 93.1848 45 97.25 45C101.315 45 104.75 47.5781 104.75 50.625C104.75 53.6719 101.315 56.25 97.25 56.25ZM134.75 48.75C130.685 48.75 127.25 46.1719 127.25 43.125C127.25 40.0781 130.685 37.5 134.75 37.5C138.815 37.5 142.25 40.0781 142.25 43.125C142.25 46.1719 138.815 48.75 134.75 48.75ZM142.25 14.7984L108.5 26.0484V15H108.434V14.9859L142.25 3.82266V14.7984Z" fill="black"/>
<path d="M63.1218 97.9375C61.5632 97.9375 60.3093 99.1914 60.3093 100.75C60.3093 102.309 61.5632 103.562 63.1218 103.562C64.6804 103.562 65.9343 102.309 65.9343 100.75C65.9343 99.1914 64.6804 97.9375 63.1218 97.9375ZM66.8718 84.8125C65.3132 84.8125 64.0593 86.0664 64.0593 87.625C64.0593 89.1836 65.3132 90.4375 66.8718 90.4375C68.4304 90.4375 69.6843 89.1836 69.6843 87.625C69.6843 86.0664 68.4304 84.8125 66.8718 84.8125ZM79.9968 67C78.0163 67 75.989 67.1875 73.9382 67.5859C62.2897 69.8594 52.903 79.2227 50.6062 90.8359C46.5515 111.355 63.6374 127 78.0632 127C79.0358 127 79.9968 126.93 80.946 126.777C85.7741 126.027 88.1413 120.379 85.9265 116.031C83.2194 110.711 87.0866 104.5 93.0632 104.5H102.403C106.598 104.5 109.997 101.031 110.008 96.8477C109.95 80.3477 96.5319 67 79.9968 67ZM102.391 100.75H93.0515C88.9147 100.75 85.153 102.848 83.0085 106.352C80.8757 109.832 80.7116 114.086 82.5749 117.742C83.1491 118.867 83.1374 120.273 82.5632 121.41C82.2819 121.949 81.6374 122.887 80.3718 123.086C79.6335 123.203 78.8601 123.262 78.0632 123.262C71.6647 123.262 64.6921 119.594 59.8405 113.699C54.6843 107.418 52.7038 99.5664 54.2858 91.5859C56.2897 81.4375 64.4812 73.2812 74.6647 71.2891C76.446 70.9375 78.239 70.7617 79.9968 70.7617C94.4226 70.7617 106.2 82.4688 106.247 96.8477C106.247 98.9922 104.512 100.75 102.391 100.75ZM93.1218 82.9375C91.5632 82.9375 90.3093 84.1914 90.3093 85.75C90.3093 87.3086 91.5632 88.5625 93.1218 88.5625C94.6804 88.5625 95.9343 87.3086 95.9343 85.75C95.9343 84.1914 94.6804 82.9375 93.1218 82.9375ZM78.1218 77.3125C76.5632 77.3125 75.3093 78.5664 75.3093 80.125C75.3093 81.6836 76.5632 82.9375 78.1218 82.9375C79.6804 82.9375 80.9343 81.6836 80.9343 80.125C80.9343 78.5664 79.6804 77.3125 78.1218 77.3125Z" fill="black"/>
</svg>
