<svg width="53" height="60" viewBox="0 0 53 60" fill="none" xmlns="http://www.w3.org/2000/svg">
<path d="M42.2118 56.25H28.1411V50.3426C34.0438 49.568 39.7474 46.9266 44.2884 42.3867C54.5083 32.1727 55.1692 16.0887 46.379 5.04962L48.5048 2.92618C48.592 2.83925 48.6612 2.73597 48.7084 2.62225C48.7556 2.50853 48.7799 2.38661 48.7799 2.26349C48.7799 2.14036 48.7556 2.01844 48.7084 1.90472C48.6612 1.791 48.592 1.68772 48.5048 1.60079L47.177 0.274229C47.001 0.0986183 46.7624 0 46.5138 0C46.2651 0 46.0266 0.0986183 45.8505 0.274229L41.2274 4.89493C41.361 5.02267 41.504 5.13399 41.6353 5.26407C46.2419 9.86837 48.779 15.9891 48.779 22.5C48.779 29.0109 46.2419 35.1316 41.6353 39.7359C37.0286 44.3391 30.9032 46.875 24.3888 46.875C17.8743 46.875 11.7489 44.3391 7.14229 39.7359C7.01221 39.6059 6.89971 39.4617 6.77315 39.3293L0.2751 45.8238C0.1879 45.9108 0.118714 46.014 0.0715071 46.1278C0.0243 46.2415 0 46.3634 0 46.4865C0 46.6097 0.0243 46.7316 0.0715071 46.8453C0.118714 46.959 0.1879 47.0623 0.2751 47.1492L1.60166 48.4746C1.77774 48.6502 2.01626 48.7488 2.26494 48.7488C2.51362 48.7488 2.75215 48.6502 2.92822 48.4746L6.92901 44.4762C12.0313 48.5332 18.2095 50.55 24.3899 50.5664V56.25H10.3169C8.76299 56.25 7.50322 57.5086 7.50322 59.0625C7.50322 59.5805 7.92276 60 8.44072 60H44.088C44.606 60 45.0255 59.5805 45.0255 59.0625C45.0267 57.5086 43.7669 56.25 42.2118 56.25ZM24.3888 43.125C29.6704 43.125 34.952 41.1117 38.9821 37.084C47.0411 29.0297 47.0411 15.9703 38.9821 7.91603C34.952 3.88829 29.6704 1.87501 24.3888 1.87501C19.1071 1.87501 13.8255 3.88829 9.79541 7.91603C1.73643 15.9703 1.73643 29.0297 9.79541 37.084C13.8255 41.1117 19.1071 43.125 24.3888 43.125ZM12.4485 10.568C15.6384 7.38048 19.8782 5.62501 24.3888 5.62501C28.8993 5.62501 33.1392 7.38048 36.329 10.568C39.5177 13.7555 41.2743 17.993 41.2743 22.5C41.2743 27.007 39.5177 31.2445 36.329 34.432C33.1392 37.6195 28.8993 39.375 24.3888 39.375C19.8782 39.375 15.6384 37.6195 12.4485 34.432C9.25986 31.2445 7.50322 27.007 7.50322 22.5C7.50322 17.993 9.25986 13.7555 12.4485 10.568Z" fill="black"/>
</svg>
